<?xml version="1.0" encoding="utf-8"?>
<svg width="174" height="40" viewBox="0 0 174 40" fill="none" xmlns="http://www.w3.org/2000/svg">
  <defs>
    <linearGradient gradientUnits="userSpaceOnUse" x1="101.522" y1="9.78" x2="101.522" y2="30.78" id="gradient-0" gradientTransform="matrix(1, 0, 0, 1, -6.453297, 0)">
      <stop offset="0" style="stop-color: rgb(100% 100% 100%)"/>
      <stop offset="1" style="stop-color: rgb(56.687% 56.687% 56.687%)"/>
    </linearGradient>
  </defs>
  <path d="M16.043 27.3064C13.8667 26.498 11.6281 26.3737 9.57614 26.9333C8.14596 27.3064 6.77796 28.0526 5.53432 28.9853L4.66376 29.7315L4.41504 29.9802L4.97467 30.4777C5.03685 30.4777 5.03686 30.5399 5.09904 30.602C5.22341 30.7264 5.34778 30.7886 5.53432 30.9129L5.9074 31.1617L6.28049 30.8508C6.34268 30.7886 6.46704 30.6642 6.5914 30.602C7.71068 29.6693 8.95431 29.0475 10.2601 28.7366C11.939 28.3013 13.7423 28.3635 15.5456 29.0475C17.0379 29.6071 20.0849 30.2911 23.7536 28.7366L23.878 28.6744L24.0645 28.4879C24.0645 28.4257 24.1267 28.4257 24.1889 28.3635C24.4998 27.9904 24.8107 27.6173 25.0594 27.182L26.303 25.2544L24.3132 26.3737C21.3907 27.9904 18.7169 28.3013 16.043 27.3064Z" fill="#55B02E"/>
  <path d="M7.52364 20.5906C9.20255 20.1553 11.0058 20.2175 12.8091 20.9015C14.7989 21.6477 19.8978 22.7048 25.6186 17.5437L26.5513 16.611L26.6135 16.5488L26.8622 16.3001L26.7378 15.9891C26.6756 15.7404 26.5513 15.4295 26.4269 15.1186L26.116 14.248L25.4942 14.8699C25.432 14.9942 25.3076 15.0564 25.1833 15.1808C22.4473 17.979 18.2189 20.8393 13.3687 19.0982C11.1924 18.2899 8.95382 18.1655 6.90182 18.7251C4.91201 19.2848 3.17091 20.3419 1.55418 21.8342V21.7721L0.621456 22.767C0.621456 22.8291 0.559286 22.8292 0.497104 22.8913L0.310547 23.0779L0.372732 23.3266C0.434914 23.6375 0.559274 23.9484 0.621456 24.2593L0.994551 25.2542L1.61637 24.4459C1.67855 24.3215 1.80291 24.2593 1.86509 24.135C3.17091 22.9535 4.97419 21.2746 7.52364 20.5906Z" fill="#55B02E"/>
  <path d="M1.49238 19.4715C2.92256 17.9792 4.53928 17.0464 6.28037 16.549C7.95928 16.1137 9.76255 16.1759 11.5658 16.8599C17.1622 18.9119 22.0124 15.5541 24.1266 13.7508L24.9349 12.9424L25.2458 12.6937L24.9971 12.3206C24.8106 12.1341 24.6862 11.8854 24.4997 11.6366L24.1266 11.1392L23.6913 11.5744C23.6291 11.6366 23.5047 11.761 23.4426 11.8232C20.8309 14.3104 16.7891 16.8599 12.1876 15.1188C10.0113 14.3104 7.77273 14.1861 5.72074 14.7457C4.41492 15.1188 3.17128 15.7406 1.92764 16.549L0.621818 17.6061C0.497455 17.7304 0.435273 17.7926 0.310909 17.917L0.186557 18.0413V18.2279C0.124375 18.6632 0.124367 19.0984 0.0621856 19.4715L0 21.0261L1.0571 19.9068C1.18146 19.7824 1.30583 19.5959 1.49238 19.4715Z" fill="#55B02E"/>
  <path d="M17.8466 31.5349L17.7222 31.908L17.8466 31.5349C17.66 31.4727 17.5357 31.4105 17.3491 31.3483C15.1728 30.54 12.9342 30.4156 10.8822 30.9753C10.4469 31.0996 10.0117 31.224 9.57639 31.4105L8.08401 32.0945L7.71094 32.2811L8.95457 32.7163C9.32766 32.8407 9.70075 32.9651 10.0738 33.0894L10.2604 33.1516L10.4469 33.0894C10.6335 33.0273 10.82 32.9029 11.0066 32.9029C11.1309 32.9029 11.2553 32.8407 11.3797 32.7785C12.872 32.4054 14.4887 32.4054 16.2298 32.9651C16.4164 33.0272 16.5408 33.0894 16.7273 33.1516L17.0382 33.276L17.2247 33.2138C17.66 33.0894 18.1575 32.9651 18.5306 32.7785L20.2717 32.1567L18.4684 31.7214C18.2818 31.6592 18.0331 31.5971 17.8466 31.5349Z" fill="#55B02E"/>
  <path d="M27.3597 18.6631L26.427 19.5958C26.3027 19.7202 26.1783 19.8445 26.0539 19.9689C23.5045 22.394 19.4005 25.0056 14.799 23.2645C12.6227 22.4562 10.3841 22.3318 8.33213 22.8915C6.40449 23.4511 4.66338 24.446 3.10884 25.9384L2.30048 26.8089L2.05176 27.1198L2.30048 27.4929C2.48703 27.7416 2.6114 27.9282 2.73576 28.1769L3.10884 28.7365L3.54412 28.1769C3.6063 28.1147 3.73066 27.9904 3.79284 27.9282C5.2852 26.3114 6.90193 25.3165 8.76739 24.8191C10.4463 24.3838 12.2496 24.446 14.0528 25.13C15.6074 25.6896 17.2241 25.8762 18.8408 25.6896C21.7012 25.3787 24.5616 23.762 26.6758 21.9587C26.8001 21.8344 26.9245 21.7722 27.0488 21.6478L27.2354 21.4613V21.2747C27.2354 20.9016 27.2976 20.4664 27.2976 20.0933L27.3597 18.6631Z" fill="#55B02E"/>
  <path d="M3.73045 12.9423L3.54391 12.5692L3.73045 12.9423C4.10354 12.7557 4.53883 12.6313 4.91192 12.507C6.59083 12.0717 8.3941 12.1339 10.1974 12.8179C11.3788 13.2532 12.5603 13.4397 13.8661 13.4397C16.4777 13.4397 19.0894 12.507 21.5145 10.7037L22.4472 9.95752L22.7581 9.70879L22.1985 9.27351C22.0119 9.08697 21.7632 8.90043 21.5145 8.77607L21.1414 8.52734L20.8305 8.77607C20.7061 8.83825 20.6439 8.96261 20.5195 9.02479C17.2239 11.5121 13.9283 12.1961 10.8192 11.0146C8.58065 10.2063 6.34209 10.0197 4.10355 10.7037C3.917 10.7659 3.73045 10.8281 3.48173 10.8902L3.35738 10.9524L3.17082 11.139C3.17082 11.2012 3.10865 11.2012 3.04647 11.2633C2.79774 11.6364 2.48682 11.9473 2.23809 12.3204L1.05664 14.1237L2.98428 13.1288C3.29519 13.1288 3.54391 13.0044 3.73045 12.9423Z" fill="#55B02E"/>
  <path d="M8.82967 8.71393L9.01621 8.77611C9.82457 9.08702 11.0682 9.39793 12.6228 9.39793C14.2395 9.39793 15.794 9.02484 17.3486 8.40302L19.2762 7.47029L17.9704 7.03503C17.5973 6.91067 17.2242 6.7863 16.7889 6.72412H16.6024L16.4159 6.78629C16.2293 6.84847 16.0428 6.97285 15.8562 7.03503C13.9908 7.71903 12.1253 7.84339 10.322 7.34594C10.1355 7.28376 9.94894 7.22156 9.7624 7.15938L9.57586 7.0972L9.3893 7.15938C9.01621 7.28375 8.64313 7.40812 8.27004 7.59466L6.83984 8.21648L8.33222 8.65174C8.45659 8.58956 8.64312 8.65175 8.82967 8.71393Z" fill="#55B02E"/>
  <path d="M 34.023 30.5 L 34.023 18.992 L 31.307 18.992 L 31.307 16.36 L 35.003 16.36 L 34.023 17.256 L 34.023 15.1 C 34.023 13.345 34.462 12.02 35.339 11.124 C 36.235 10.228 37.532 9.78 39.231 9.78 C 39.642 9.78 40.071 9.808 40.519 9.864 C 40.986 9.92 41.387 10.023 41.723 10.172 L 41.723 12.916 C 41.48 12.823 41.191 12.748 40.855 12.692 C 40.519 12.636 40.192 12.608 39.875 12.608 C 39.147 12.608 38.568 12.823 38.139 13.252 C 37.71 13.663 37.495 14.335 37.495 15.268 L 37.495 16.976 L 36.991 16.36 L 46.819 16.36 L 46.819 30.5 L 43.319 30.5 L 43.319 18.992 L 37.523 18.992 L 37.523 30.5 L 34.023 30.5 Z M 43.123 13.7 L 43.123 10.284 L 47.015 10.284 L 47.015 13.7 L 43.123 13.7 Z M 50.626 30.5 L 50.626 19.888 C 50.626 19.309 50.607 18.721 50.57 18.124 C 50.532 17.527 50.476 16.939 50.402 16.36 L 53.79 16.36 L 54.07 19.16 L 53.734 19.16 C 54.182 18.171 54.844 17.415 55.722 16.892 C 56.599 16.351 57.616 16.08 58.774 16.08 C 60.435 16.08 61.686 16.547 62.526 17.48 C 63.366 18.413 63.786 19.869 63.786 21.848 L 63.786 30.5 L 60.286 30.5 L 60.286 22.016 C 60.286 20.877 60.062 20.065 59.614 19.58 C 59.184 19.076 58.531 18.824 57.654 18.824 C 56.571 18.824 55.712 19.16 55.078 19.832 C 54.443 20.504 54.126 21.4 54.126 22.52 L 54.126 30.5 L 50.626 30.5 Z M 72.957 30.78 C 71.725 30.78 70.642 30.491 69.709 29.912 C 68.775 29.315 68.047 28.465 67.525 27.364 C 67.002 26.263 66.741 24.947 66.741 23.416 C 66.741 21.885 67.002 20.579 67.525 19.496 C 68.047 18.395 68.775 17.555 69.709 16.976 C 70.642 16.379 71.725 16.08 72.957 16.08 C 74.151 16.08 75.197 16.379 76.093 16.976 C 77.007 17.555 77.614 18.339 77.913 19.328 L 77.605 19.328 L 77.913 16.36 L 81.273 16.36 C 81.217 16.939 81.161 17.527 81.105 18.124 C 81.067 18.721 81.049 19.309 81.049 19.888 L 81.049 30.5 L 77.577 30.5 L 77.549 27.588 L 77.885 27.588 C 77.586 28.559 76.979 29.333 76.065 29.912 C 75.15 30.491 74.114 30.78 72.957 30.78 Z M 73.937 28.092 C 75.038 28.092 75.925 27.709 76.597 26.944 C 77.269 26.16 77.605 24.984 77.605 23.416 C 77.605 21.848 77.269 20.681 76.597 19.916 C 75.925 19.151 75.038 18.768 73.937 18.768 C 72.835 18.768 71.949 19.151 71.277 19.916 C 70.605 20.681 70.269 21.848 70.269 23.416 C 70.269 24.984 70.595 26.16 71.249 26.944 C 71.921 27.709 72.817 28.092 73.937 28.092 Z M 84.86 30.5 L 84.86 19.888 C 84.86 19.309 84.841 18.721 84.804 18.124 C 84.767 17.527 84.711 16.939 84.636 16.36 L 88.024 16.36 L 88.304 19.16 L 87.968 19.16 C 88.416 18.171 89.079 17.415 89.956 16.892 C 90.833 16.351 91.851 16.08 93.008 16.08 C 94.67 16.08 95.92 16.547 96.76 17.48 C 97.6 18.413 98.02 19.869 98.02 21.848 L 98.02 30.5 L 94.52 30.5 L 94.52 22.016 C 94.52 20.877 94.296 20.065 93.848 19.58 C 93.419 19.076 92.765 18.824 91.888 18.824 C 90.805 18.824 89.947 19.16 89.312 19.832 C 88.677 20.504 88.36 21.4 88.36 22.52 L 88.36 30.5 L 84.86 30.5 Z M 108.227 30.78 C 106.771 30.78 105.493 30.481 104.391 29.884 C 103.309 29.287 102.469 28.437 101.871 27.336 C 101.274 26.216 100.975 24.891 100.975 23.36 C 100.975 21.829 101.274 20.523 101.871 19.44 C 102.487 18.357 103.337 17.527 104.419 16.948 C 105.502 16.369 106.771 16.08 108.227 16.08 C 109.161 16.08 110.066 16.229 110.943 16.528 C 111.839 16.808 112.567 17.219 113.127 17.76 L 112.063 20.196 C 111.559 19.729 110.99 19.384 110.355 19.16 C 109.739 18.917 109.133 18.796 108.535 18.796 C 107.285 18.796 106.305 19.188 105.595 19.972 C 104.905 20.756 104.559 21.895 104.559 23.388 C 104.559 24.881 104.905 26.029 105.595 26.832 C 106.305 27.635 107.285 28.036 108.535 28.036 C 109.114 28.036 109.711 27.924 110.327 27.7 C 110.962 27.476 111.541 27.131 112.063 26.664 L 113.127 29.072 C 112.549 29.613 111.811 30.033 110.915 30.332 C 110.038 30.631 109.142 30.78 108.227 30.78 Z M 122.399 30.78 C 120.029 30.78 118.171 30.127 116.827 28.82 C 115.483 27.513 114.811 25.721 114.811 23.444 C 114.811 21.969 115.101 20.681 115.679 19.58 C 116.258 18.479 117.061 17.62 118.087 17.004 C 119.133 16.388 120.346 16.08 121.727 16.08 C 123.09 16.08 124.229 16.369 125.143 16.948 C 126.058 17.527 126.749 18.339 127.215 19.384 C 127.701 20.429 127.943 21.652 127.943 23.052 L 127.943 23.976 L 117.639 23.976 L 117.639 22.128 L 125.451 22.128 L 124.975 22.52 C 124.975 21.213 124.695 20.215 124.135 19.524 C 123.594 18.833 122.801 18.488 121.755 18.488 C 120.598 18.488 119.702 18.899 119.067 19.72 C 118.451 20.541 118.143 21.689 118.143 23.164 L 118.143 23.528 C 118.143 25.059 118.517 26.207 119.263 26.972 C 120.029 27.719 121.102 28.092 122.483 28.092 C 123.286 28.092 124.033 27.989 124.723 27.784 C 125.433 27.56 126.105 27.205 126.739 26.72 L 127.775 29.072 C 127.103 29.613 126.301 30.033 125.367 30.332 C 124.434 30.631 123.445 30.78 122.399 30.78 Z M 130.515 30.5 L 130.515 26.608 L 134.435 26.608 L 134.435 30.5 L 130.515 30.5 Z M 143.23 30.78 C 141.998 30.78 140.916 30.491 139.982 29.912 C 139.049 29.315 138.321 28.465 137.798 27.364 C 137.276 26.263 137.014 24.947 137.014 23.416 C 137.014 21.885 137.276 20.579 137.798 19.496 C 138.321 18.395 139.049 17.555 139.982 16.976 C 140.916 16.379 141.998 16.08 143.23 16.08 C 144.425 16.08 145.47 16.379 146.366 16.976 C 147.281 17.555 147.888 18.339 148.186 19.328 L 147.878 19.328 L 148.186 16.36 L 151.546 16.36 C 151.49 16.939 151.434 17.527 151.378 18.124 C 151.341 18.721 151.322 19.309 151.322 19.888 L 151.322 30.5 L 147.85 30.5 L 147.822 27.588 L 148.158 27.588 C 147.86 28.559 147.253 29.333 146.338 29.912 C 145.424 30.491 144.388 30.78 143.23 30.78 Z M 144.21 28.092 C 145.312 28.092 146.198 27.709 146.87 26.944 C 147.542 26.16 147.878 24.984 147.878 23.416 C 147.878 21.848 147.542 20.681 146.87 19.916 C 146.198 19.151 145.312 18.768 144.21 18.768 C 143.109 18.768 142.222 19.151 141.55 19.916 C 140.878 20.681 140.542 21.848 140.542 23.416 C 140.542 24.984 140.869 26.16 141.522 26.944 C 142.194 27.709 143.09 28.092 144.21 28.092 Z M 155.134 30.5 L 155.134 16.36 L 158.634 16.36 L 158.634 30.5 L 155.134 30.5 Z M 154.938 13.7 L 154.938 10.284 L 158.83 10.284 L 158.83 13.7 L 154.938 13.7 Z" style="fill: url(&quot;#gradient-0&quot;);"/>
</svg>